<?xml version="1.0" encoding="UTF-8" standalone="no"?>
<!-- Created with Inkscape (http://www.inkscape.org/) -->

<svg
   xmlns:dc="http://purl.org/dc/elements/1.1/"
   xmlns:cc="http://creativecommons.org/ns#"
   xmlns:rdf="http://www.w3.org/1999/02/22-rdf-syntax-ns#"
   xmlns:svg="http://www.w3.org/2000/svg"
   xmlns="http://www.w3.org/2000/svg"
   xmlns:sodipodi="http://sodipodi.sourceforge.net/DTD/sodipodi-0.dtd"
   xmlns:inkscape="http://www.inkscape.org/namespaces/inkscape"
   width="92.459mm"
   height="92.459mm"
   viewBox="0 0 92.459 92.459"
   version="1.1"
   id="svg8"
   inkscape:version="0.92.4 (5da689c313, 2019-01-14)"
   sodipodi:docname="Omega.svg"
   style="enable-background:new">
  <defs
     id="defs2">
    <filter
       style="color-interpolation-filters:sRGB"
       inkscape:label="Feather"
       id="filter912">
      <feGaussianBlur
         stdDeviation="37.5"
         result="blur"
         id="feGaussianBlur904" />
      <feComposite
         in="SourceGraphic"
         in2="blur"
         operator="atop"
         result="composite1"
         id="feComposite906" />
      <feComposite
         in2="composite1"
         operator="in"
         result="composite2"
         id="feComposite908" />
      <feComposite
         in2="composite2"
         operator="in"
         result="composite3"
         id="feComposite910" />
    </filter>
    <filter
       inkscape:collect="always"
       style="color-interpolation-filters:sRGB"
       id="filter1520"
       x="-0.12651955"
       width="1.2530391"
       y="-0.12788782"
       height="1.2557756">
      <feGaussianBlur
         inkscape:collect="always"
         stdDeviation="3.8898149"
         id="feGaussianBlur1522" />
      <feBlend
         inkscape:collect="always"
         mode="overlay"
         in2="BackgroundImage"
         id="feBlend1524" />
    </filter>
    <filter
       inkscape:collect="always"
       style="color-interpolation-filters:sRGB"
       id="filter253692"
       x="-0.069535561"
       width="1.1390711"
       y="-0.06966456"
       height="1.1393291">
      <feGaussianBlur
         inkscape:collect="always"
         stdDeviation="1.983431"
         id="feGaussianBlur253694" />
    </filter>
  </defs>
  <sodipodi:namedview
     id="base"
     pagecolor="#ffffff"
     bordercolor="#666666"
     borderopacity="1.0"
     inkscape:pageopacity="0.0"
     inkscape:pageshadow="2"
     inkscape:zoom="1.4"
     inkscape:cx="79.728014"
     inkscape:cy="95.986037"
     inkscape:document-units="mm"
     inkscape:current-layer="layer4"
     showgrid="false"
     inkscape:window-width="1920"
     inkscape:window-height="1017"
     inkscape:window-x="-8"
     inkscape:window-y="-8"
     inkscape:window-maximized="1" />
  <metadata
     id="metadata5">
    <rdf:RDF>
      <cc:Work
         rdf:about="">
        <dc:format>image/svg+xml</dc:format>
        <dc:type
           rdf:resource="http://purl.org/dc/dcmitype/StillImage" />
        <dc:title></dc:title>
      </cc:Work>
    </rdf:RDF>
  </metadata>
  <g
     inkscape:groupmode="layer"
     id="layer3"
     inkscape:label="Layer 2"
     style="display:inline"
     transform="translate(0,-204.54099)">
    <path
       style="font-style:normal;font-weight:normal;font-size:400px;font-family:'Times New Roman';text-align:start;text-anchor:start;fill:#3ffc00;fill-opacity:1;stroke:none;stroke-width:0.26946634px;stroke-linecap:butt;stroke-linejoin:miter;stroke-opacity:1;filter:url(#filter1520)"
       id="text2396-6"
       d="m 9.0658811,270.78278 h 1.9473169 c 0.140345,2.49117 0.877167,4.22796 2.210467,5.21038 1.333291,0.98244 3.456038,1.47365 6.368255,1.47364 h 14.36802 l -0.10526,-3.52622 c -5.57881,-1.12276 -10.66639,-4.22793 -15.262746,-9.31554 -4.596371,-5.08755 -6.894546,-11.50842 -6.894546,-19.26263 0,-8.59621 3.192888,-15.92933 9.578682,-21.9994 6.42086,-6.06994 14.78905,-9.10494 25.10459,-9.10501 9.99966,7e-5 18.17488,2.87718 24.52564,8.63134 6.35063,5.71921 9.52598,13.05233 9.52605,21.9994 -7e-5,7.26299 -1.98247,13.43827 -5.9472,18.52582 -3.92979,5.05251 -9.26297,8.56118 -15.99957,10.52602 l -0.5263,3.52622 h 14.63118 c 3.33318,1e-5 5.5261,-0.63155 6.57877,-1.89468 1.08761,-1.26311 1.66654,-2.85956 1.7368,-4.78934 h 1.94731 v 16.47323 H 53.38045 l 1.36839,-15.8943 c 9.05233,-2.84201 13.57852,-11.2102 13.57858,-25.10458 -6e-5,-9.08743 -2.22807,-16.05214 -6.68403,-20.89418 -4.42099,-4.8419 -9.61382,-7.26289 -15.57852,-7.26295 -6.35074,6e-5 -11.61374,2.57894 -15.78904,7.73663 -4.14026,5.12273 -6.21038,11.68394 -6.21036,19.68368 -2e-5,5.78934 0.92978,11.06989 2.7894,15.84166 1.85958,4.73674 5.42088,8.06998 10.68392,9.99974 l 0.99997,15.8943 H 9.0658811 v -16.47323"
       inkscape:connector-curvature="0" />
  </g>
  <g
     inkscape:label="Layer 1"
     inkscape:groupmode="layer"
     id="layer1"
     style="display:inline"
     transform="translate(0,-204.54099)">
    <path
       style="font-style:normal;font-weight:normal;font-size:400px;font-family:'Times New Roman';text-align:start;text-anchor:start;opacity:1;fill:#000000;fill-opacity:1;fill-rule:evenodd;stroke:none;stroke-width:0.26458332px;stroke-linecap:butt;stroke-linejoin:miter;stroke-opacity:1"
       id="text2396"
       d="m 9.7344353,270.41989 h 1.9120307 c 0.1378,2.44603 0.86127,4.15135 2.17041,5.11596 1.30913,0.96464 3.39341,1.44695 6.252854,1.44694 h 14.10766 l -0.10335,-3.46232 c -5.47772,-1.10242 -10.47311,-4.15132 -14.98617,-9.14673 -4.513084,-4.99536 -6.769614,-11.29988 -6.769614,-18.91357 0,-8.44044 3.13503,-15.64068 9.405114,-21.60075 6.3045,-5.95995 14.52105,-8.93995 24.64966,-8.94002 9.81846,7e-5 17.84553,2.82504 24.08121,8.47493 6.23555,5.61557 9.35336,12.81581 9.35343,21.60075 -7e-5,7.13138 -1.94655,13.19475 -5.83943,18.19011 -3.85858,4.96095 -9.09512,8.40604 -15.70964,10.33528 l -0.51677,3.46232 h 14.36605 c 3.27278,10e-6 5.42596,-0.62011 6.45956,-1.86035 1.0679,-1.24022 1.63634,-2.80774 1.70532,-4.70255 h 1.91203 v 16.17472 H 53.24598 l 1.34359,-15.60628 c 8.88829,-2.79051 13.33246,-11.00706 13.33252,-24.64966 -6e-5,-8.92275 -2.18769,-15.76126 -6.56291,-20.51555 -4.34087,-4.75416 -9.4396,-7.13128 -15.29621,-7.13134 -6.23566,6e-5 -11.40329,2.53221 -15.50293,7.59643 -4.06523,5.0299 -6.09784,11.47222 -6.09782,19.32699 -2e-5,5.68444 0.91293,10.8693 2.73885,15.5546 1.82588,4.6509 5.32265,7.92374 10.49032,9.81853 l 0.98185,15.60628 H 9.7344353 v -16.17472"
       inkscape:connector-curvature="0" />
  </g>
  <g
     inkscape:groupmode="layer"
     id="layer4"
     inkscape:label="Layer 3"
     transform="translate(0,-204.54099)">
    <path
       style="font-style:normal;font-weight:normal;font-size:400px;font-family:'Times New Roman';text-align:start;text-anchor:start;display:inline;opacity:1;fill:#4f4f4f;fill-opacity:1;fill-rule:evenodd;stroke:none;stroke-width:0.26458332px;stroke-linecap:butt;stroke-linejoin:miter;stroke-opacity:1;filter:url(#filter253692)"
       d="m 50.67957,217.16981 c 13.00534,2.75568 20.03435,16.72643 19.24219,29.18555 0.0905,9.10988 -2.09961,19.80262 -10.61914,24.73047 13.89058,-3.97844 21.47818,-19.82537 17.64453,-33.4043 -2.88126,-11.96215 -14.83197,-19.98501 -26.76172,-20.60352 z m -9.58789,0.0527 c 0.009,0.009 0.0848,-0.0197 0,0 z m 0.0293,-0.002 c -15.57906,0.95175 -29.356744,16.17723 -26.578126,32.14063 0.969882,10.39981 9.246306,19.4408 19.228516,22.04101 -10.93506,-6.11308 -12.02191,-20.55834 -10.90234,-31.73437 1.27027,-10.001 7.93214,-20.1838 18.25195,-22.44727 z m 39.02148,59.13672 c -5.34843,4.87248 -13.64689,1.59378 -20.03516,2.625 -8.5157,-0.76758 -3.96835,9.29969 3.31836,5.61133 5.0494,-1.20386 14.99939,2.49288 16.75977,-2 -0.0263,-2.01664 0.0538,-4.43333 -0.043,-6.23633 z m -68.408199,8.23633 c 8.270179,0 16.540369,0 24.810549,0 2.13828,-8.53796 -7.16008,-4.89609 -12.36719,-5.61133 -4.12842,-0.0996 -9.253931,0.64337 -12.443359,-2.64648 0,2.7526 0,5.5052 0,8.25781 z"
       id="text2396-1"
       inkscape:connector-curvature="0" />
  </g>
</svg>
