<?xml version="1.0" encoding="UTF-8" standalone="no"?>
<svg
  xmlns="http://www.w3.org/2000/svg"
  id="svg8"
  version="1.1"
  class="fontAboveSlogan"
  viewBox="0 0 1223.2710077960646 193">

  <defs
     id="defs12" />
  <!---->
  <!---->
  <!---->
  <g
     transform="matrix(12.244898912460865,0,0,12.244898912460865,386.06775468626324,-22.702657559076087)"
     fill="#FFFFFF"
     id="a7b3fb7d-6217-46cf-99a1-29573ff6069d">
    <path
       id="path2"
       d="M3.76 1.93L3.76 1.93L3.76 1.93Q5.87 1.93 6.53 3.41L6.53 3.41L6.53 3.41Q6.90 4.13 6.90 6.18L6.90 6.18L6.90 6.23L6.18 6.23L6.18 6.56L6.90 6.56L6.90 10.09L6.43 10.09L6.43 11.37L5.48 11.37L5.48 11.73L2.15 11.73L2.15 11.37L1.74 11.37L1.74 10.09L0.89 10.09L0.89 9.09L1.40 9.09L1.40 8.57L0.89 8.57L0.89 9.09L-0.32 9.09L-0.32 8.57L0.59 8.57L0.59 8.57Q0.58 7.37 0.58 6.73L0.58 6.73L0.58 5.90L0.58 5.90Q0.58 3.58 1.37 2.79L1.37 2.79L1.37 2.79Q2.09 1.93 3.76 1.93ZM2.56 5.31L2.56 5.31L2.58 5.31L2.56 5.34L2.56 6.23L1.83 6.23L1.83 6.56L2.56 6.56L2.56 6.56Q2.54 8.67 2.54 9.75L2.54 9.75L2.54 10.09L4.18 10.09L4.18 9.55L4.94 9.55L4.94 9.54L4.94 9.54Q4.94 8.54 4.92 6.75L4.92 6.75L4.92 6.75Q4.92 6.68 4.94 6.37L4.94 6.37L4.94 6.37Q4.94 4.44 4.71 4.00L4.71 4.00L4.71 4.00Q4.48 3.58 3.86 3.58L3.86 3.58L3.61 3.58L3.61 3.58Q2.87 3.58 2.69 4.22L2.69 4.22L2.69 4.22Q2.61 4.55 2.56 5.31ZM6.90 6.56L6.90 6.23L8.08 6.23L8.08 6.56L6.90 6.56ZM6.95 6.64L6.99 6.62L7.02 6.62L7.02 6.62Q7.06 6.62 7.08 6.82L7.08 6.82L7.08 6.82Q7.11 6.82 7.16 6.62L7.16 6.62L7.21 6.62L7.21 6.62Q7.25 6.62 7.28 6.83L7.28 6.83L7.29 6.83L7.34 6.62L7.42 6.62L7.42 6.64L7.42 6.64Q7.35 6.99 7.31 6.99L7.31 6.99L7.25 6.99L7.25 6.99Q7.25 6.97 7.20 6.78L7.20 6.78L7.18 6.78L7.18 6.78Q7.16 6.99 7.12 6.99L7.12 6.99L7.05 6.99L7.05 6.99Q7 6.78 6.95 6.64L6.95 6.64ZM7.02 7.11L7.02 7.11L7.08 7.11L7.08 7.11Q7.12 7.11 7.18 7.34L7.18 7.34L7.20 7.34L7.20 7.34Q7.20 7.31 7.26 7.11L7.26 7.11L7.38 7.11L7.38 7.49L7.29 7.49L7.29 7.29L7.28 7.29L7.28 7.29Q7.23 7.49 7.20 7.49L7.20 7.49L7.15 7.49L7.15 7.49Q7.10 7.33 7.10 7.31L7.10 7.31L7.08 7.31L7.08 7.31Q7.08 7.49 7.05 7.49L7.05 7.49L6.99 7.49L6.99 7.14L6.99 7.14Q6.99 7.11 7.02 7.11ZM6.97 7.60L6.97 7.60L7.03 7.60L7.03 7.60Q7.12 7.65 7.12 7.72L7.12 7.72L7.12 7.72Q7.12 7.72 7.21 7.60L7.21 7.60L7.28 7.60L7.28 7.64L7.18 7.78L7.18 7.78Q7.18 7.79 7.29 7.96L7.29 7.96L7.29 7.98L7.21 7.98L7.12 7.86L7.12 7.86Q7.06 7.98 7.03 7.98L7.03 7.98L6.95 7.98L6.95 7.98Q7.07 7.81 7.07 7.78L7.07 7.78L7.07 7.78Q6.97 7.63 6.97 7.60ZM7.02 8.09L7.02 8.09L7.12 8.09L7.12 8.09Q7.28 8.09 7.28 8.21L7.28 8.21L7.28 8.22L7.25 8.27L7.25 8.27Q7.27 8.27 7.29 8.33L7.29 8.33L7.29 8.39L7.29 8.39Q7.26 8.47 7.13 8.47L7.13 8.47L6.99 8.47L6.99 8.13L6.99 8.13Q6.99 8.09 7.02 8.09ZM7.18 8.18L7.08 8.18L7.08 8.24L7.18 8.24L7.18 8.18ZM4.55 8.54L4.55 8.18L4.64 8.18L4.64 8.31L4.76 8.31L4.76 8.21L4.76 8.21Q4.76 8.18 4.79 8.18L4.79 8.18L4.85 8.18L4.85 8.54L4.76 8.54L4.76 8.39L4.64 8.39L4.64 8.54L4.55 8.54ZM7.16 8.31L7.08 8.31L7.08 8.39L7.20 8.39L7.20 8.34L7.20 8.34Q7.20 8.31 7.16 8.31L7.16 8.31ZM7.02 8.59L7.02 8.59L7.23 8.59L7.23 8.59Q7.26 8.59 7.26 8.62L7.26 8.62L7.26 8.67L7.08 8.67L7.08 8.73L7.25 8.73L7.25 8.81L7.08 8.81L7.08 8.88L7.26 8.88L7.26 8.96L6.99 8.96L6.99 8.62L6.99 8.62Q6.99 8.59 7.02 8.59ZM4.55 8.75L4.55 8.67L4.82 8.67L4.82 8.70L4.82 8.70Q4.82 8.76 4.66 8.95L4.66 8.95L4.66 8.95Q4.84 8.95 4.84 8.98L4.84 8.98L4.84 9.03L4.53 9.03L4.53 8.96L4.53 8.96Q4.65 8.82 4.69 8.75L4.69 8.75L4.55 8.75ZM2.82 9.14L2.82 9.14L2.82 9.14Q2.97 9.14 2.99 9.36L2.99 9.36L2.99 9.36Q2.99 9.52 2.79 9.54L2.79 9.54L2.79 9.54Q2.63 9.50 2.63 9.36L2.63 9.36L2.63 9.36Q2.63 9.14 2.82 9.14ZM4.64 9.16L4.64 9.16L4.74 9.16L4.74 9.16Q4.74 9.20 4.87 9.52L4.87 9.52L4.79 9.52L4.79 9.52Q4.76 9.52 4.76 9.45L4.76 9.45L4.64 9.45L4.64 9.45Q4.61 9.45 4.61 9.52L4.61 9.52L4.51 9.52L4.51 9.50L4.51 9.50Q4.55 9.44 4.64 9.16ZM2.73 9.29L2.73 9.29L2.73 9.36L2.73 9.36Q2.73 9.45 2.82 9.45L2.82 9.45L2.82 9.45Q2.89 9.44 2.89 9.36L2.89 9.36L2.89 9.29L2.89 9.29Q2.89 9.26 2.82 9.22L2.82 9.22L2.79 9.22L2.79 9.22Q2.77 9.22 2.73 9.29ZM4.68 9.29L4.68 9.29L4.66 9.37L4.72 9.37L4.72 9.37Q4.70 9.29 4.68 9.29ZM2.79 9.63L2.79 9.63L2.79 9.63Q2.90 9.63 2.95 9.73L2.95 9.73L2.95 9.78L2.87 9.78L2.87 9.78Q2.87 9.71 2.78 9.71L2.78 9.71L2.73 9.78L2.73 9.84L2.73 9.84Q2.73 9.95 2.82 9.95L2.82 9.95L2.82 9.95Q2.84 9.95 2.91 9.86L2.91 9.86L2.97 9.86L2.97 9.86Q2.97 10.00 2.79 10.03L2.79 10.03L2.79 10.03Q2.63 9.98 2.63 9.84L2.63 9.84L2.63 9.84Q2.65 9.63 2.79 9.63ZM7.77 9.38L7.77 1.98L9.95 1.98L9.95 1.98Q10.31 3.29 11.42 7.23L11.42 7.23L12.28 7.23L12.28 7.23Q12.32 7.23 12.56 6.30L12.56 6.30L12.56 6.30Q13.10 4.44 13.78 1.98L13.78 1.98L15.79 1.98L15.79 8.31L15.90 8.31L15.90 9.46L15.29 9.46L15.29 9.67L15.90 9.67L15.90 11.73L14.19 11.73L14.19 10.97L14.40 10.97L14.40 8.63L14.04 8.63L14.04 7.46L13.83 7.46L13.82 7.53L13.63 7.53L13.63 9.19L13.04 9.19L13.04 9.97L12.53 9.97L12.53 11.29L11.33 11.29L11.33 10.45L10.59 10.45L10.59 9.30L10.14 9.30L10.14 8.09L9.89 8.09L9.89 8.09Q9.88 8.00 9.73 7.46L9.73 7.46L11.46 7.46L11.41 7.23L9.68 7.23L9.73 7.46L9.50 7.46L9.50 8.98L9.61 8.98L9.61 10.64L9.19 10.64L9.19 10.94L9.61 10.94L9.61 11.38L8.07 11.38L8.07 9.38L7.77 9.38ZM9.50 6.54L9.48 6.54L9.48 6.66L9.48 6.66Q9.48 6.81 9.50 7.23L9.50 7.23L9.67 7.23L9.67 7.23Q9.50 6.58 9.50 6.54L9.50 6.54ZM14.06 6.56L14.04 6.56L13.90 7.23L14.04 7.23L14.04 7.23Q14.06 6.82 14.06 6.62L14.06 6.62L14.06 6.56ZM9.48 7.23L8.94 7.23L8.94 7.46L9.48 7.46L9.48 7.23ZM13.88 7.23L12.31 7.23L12.26 7.46L13.82 7.46L13.82 7.46Q13.88 7.29 13.88 7.23L13.88 7.23ZM15.24 7.23L14.06 7.23L14.06 7.46L15.24 7.46L15.24 7.23ZM12.23 7.46L11.49 7.46L11.49 7.46Q11.60 7.99 11.64 7.99L11.64 7.99L11.84 7.99L11.84 8.87L12.15 8.87L12.15 7.51L12.23 7.51L12.23 7.46ZM15.90 9.67L15.90 9.46L16.89 9.46L16.89 9.67L15.90 9.67ZM7.62 11.61L7.62 11.46L9.37 11.46L9.37 11.61L7.62 11.61ZM17.34 6.80L17.34 2.00L22.13 2.00L22.13 3.60L22.13 3.60Q22.13 3.63 22.09 3.63L22.09 3.63L19.25 3.63L19.25 5.74L21.80 5.74L21.80 5.76L21.80 5.76Q21.80 5.84 21.77 6.79L21.77 6.79L21.77 6.79Q21.75 6.79 21.75 6.80L21.75 6.80L21.87 6.80L21.87 7.29L19.66 7.29L19.66 9.29L19.07 9.29L19.07 9.49L19.66 9.49L19.66 10.10L22.16 10.10L22.16 10.32L21.96 10.32L21.96 11.52L18.97 11.52L18.97 11.73L17.55 11.73L17.55 8.24L17.34 8.24L17.34 7.01L15.78 7.01L15.78 6.80L17.34 6.80ZM18.15 6.80L17.35 6.80L17.35 7.01L18.15 7.01L18.15 6.80ZM26.53 1.96L26.53 1.96L26.55 1.96L26.55 1.96Q28.74 1.96 29.22 3.38L29.22 3.38L29.22 3.38Q29.45 3.91 29.45 4.87L29.45 4.87L27.86 5.09L27.84 5.05L27.84 5.02L27.84 5.02Q27.84 3.86 27.06 3.64L27.06 3.64L27.06 3.64Q26.83 3.58 26.48 3.56L26.48 3.56L26.48 3.56Q25.64 3.56 25.40 4.47L25.40 4.47L25.40 4.47Q25.25 5.07 25.25 5.89L25.25 5.89L25.25 6.66L25.25 6.66Q25.25 7.99 25.29 8.67L25.29 8.67L25.69 8.67L25.69 10.03L27.63 10.03L27.63 7.70L26.40 7.70L26.40 6.45L30.10 6.45L30.10 6.72L29.61 6.72L29.61 8.16L28.62 8.16L28.62 8.62L29.11 8.62L29.11 11.39L23.82 11.39L23.82 9.91L23.22 9.91L23.22 9.78L23.48 9.78L23.48 9.64L23.82 9.64L23.82 9.08L22.90 9.08L22.90 7.90L23.34 7.90L23.34 7.90Q23.32 7.38 23.32 7.31L23.32 7.31L23.32 7.31Q23.32 4.20 23.66 3.56L23.66 3.56L23.66 3.56Q23.76 3.15 24.23 2.67L24.23 2.67L24.23 2.67Q24.92 1.96 26.53 1.96ZM25.18 11.73L25.18 11.54L27.19 11.54L27.19 11.73L25.18 11.73ZM31.56 7.57L33.24 1.96L34.89 1.96L34.89 1.96Q34.92 2.10 36.49 7.29L36.49 7.29L36.79 7.29L36.79 10.51L36.11 10.51L36.11 10.76L36.79 10.76L36.79 11.45L34.97 11.45L34.97 9.47L32.75 9.47L32.75 10.32L31.84 10.32L31.84 11.73L30.19 11.73L30.19 11.63L30.32 11.63L30.32 10.32L31.00 10.32L31.00 7.57L31.56 7.57ZM34.05 4.71L34.02 4.71L34.02 4.72L34.02 4.72Q33.80 5.89 33.20 8.40L33.20 8.40L34.73 8.40L34.73 7.29L34.60 7.29L34.60 7.29Q34.05 4.92 34.05 4.71L34.05 4.71ZM29.72 7.57L29.72 7.28L31.00 7.28L31.00 7.57L29.72 7.57ZM34.97 11.73L34.97 11.57L37.17 11.57L37.17 11.73L34.97 11.73Z" />
  </g>
  <!---->
  <!---->
  <g
     transform="matrix(4.672897140729944,0,0,4.672897140729944,-14.345791893435603,116.59813847157807)"
     fill="#FFFFFF"
     id="4f6183de-5f38-4814-b9ee-18fd347df11f">
    <path
       id="path5"
       d="M3.21 15.61L3.21 15.61L3.21 15.61Q3.14 15.04 3.10 14.36L3.10 14.36L3.10 14.36Q3.07 13.68 3.07 13.09L3.07 13.09L3.07 13.09Q3.07 12.15 3.13 11.29L3.13 11.29L3.13 11.29Q3.19 10.43 3.28 9.48L3.28 9.48L3.28 9.48Q3.37 8.54 3.49 7.43L3.49 7.43L3.49 7.43Q3.60 6.31 3.68 4.86L3.68 4.86L3.68 4.86Q3.86 4.86 4.21 4.96L4.21 4.96L4.21 4.96Q4.55 5.07 4.90 5.21L4.90 5.21L4.90 5.21Q5.25 5.35 5.52 5.49L5.52 5.49L5.52 5.49Q5.78 5.64 5.82 5.74L5.82 5.74L5.82 5.74Q5.59 6.29 5.40 7.18L5.40 7.18L5.40 7.18Q5.21 8.06 5.08 9.11L5.08 9.11L5.08 9.11Q4.96 10.16 4.89 11.27L4.89 11.27L4.89 11.27Q4.82 12.38 4.82 13.34L4.82 13.34L4.82 13.34Q4.82 13.79 4.83 14.22L4.83 14.22L4.83 14.22Q4.84 14.66 4.87 15.02L4.87 15.02L4.87 15.02Q5.17 14.59 5.55 13.78L5.55 13.78L5.55 13.78Q5.94 12.98 6.35 11.98L6.35 11.98L6.35 11.98Q6.76 10.99 7.17 9.91L7.17 9.91L7.17 9.91Q7.59 8.82 7.94 7.83L7.94 7.83L7.94 7.83Q8.29 6.85 8.53 6.05L8.53 6.05L8.53 6.05Q8.78 5.26 8.88 4.86L8.88 4.86L8.88 4.86Q9.06 4.86 9.42 4.96L9.42 4.96L9.42 4.96Q9.77 5.07 10.12 5.21L10.12 5.21L10.12 5.21Q10.46 5.35 10.72 5.49L10.72 5.49L10.72 5.49Q10.99 5.64 11.02 5.74L11.02 5.74L11.02 5.74Q10.78 6.29 10.59 7.18L10.59 7.18L10.59 7.18Q10.40 8.06 10.28 9.11L10.28 9.11L10.28 9.11Q10.15 10.16 10.08 11.27L10.08 11.27L10.08 11.27Q10.01 12.38 10.01 13.34L10.01 13.34L10.01 13.34Q10.01 13.75 10.02 14.15L10.02 14.15L10.02 14.15Q10.02 14.55 10.05 14.87L10.05 14.87L10.05 14.87Q10.50 13.71 10.98 12.56L10.98 12.56L10.98 12.56Q11.47 11.42 11.94 10.38L11.94 10.38L11.94 10.38Q12.42 9.34 12.87 8.43L12.87 8.43L12.87 8.43Q13.31 7.53 13.69 6.82L13.69 6.82L13.69 6.82Q14.07 6.12 14.35 5.66L14.35 5.66L14.35 5.66Q14.63 5.19 14.78 5.04L14.78 5.04L14.78 5.04Q15.11 5.08 15.45 5.27L15.45 5.27L15.45 5.27Q15.79 5.46 16.06 5.75L16.06 5.75L16.06 5.75Q15.65 6.08 15.13 6.81L15.13 6.81L15.13 6.81Q14.62 7.55 14.07 8.51L14.07 8.51L14.07 8.51Q13.52 9.48 12.97 10.57L12.97 10.57L12.97 10.57Q12.42 11.66 11.94 12.70L11.94 12.70L11.94 12.70Q11.47 13.73 11.10 14.63L11.10 14.63L11.10 14.63Q10.72 15.53 10.53 16.07L10.53 16.07L10.53 16.07Q10.16 16.24 9.81 16.24L9.81 16.24L9.81 16.24Q9.37 16.18 8.97 16.02L8.97 16.02L8.97 16.02Q8.57 15.85 8.40 15.61L8.40 15.61L8.40 15.61Q8.36 15.39 8.33 15.09L8.33 15.09L8.33 15.09Q8.30 14.78 8.29 14.49L8.29 14.49L8.29 14.49Q8.27 14.20 8.27 13.92L8.27 13.92L8.27 13.92Q8.26 13.65 8.26 13.45L8.26 13.45L8.26 13.45Q8.26 12.21 8.36 10.91L8.36 10.91L8.36 10.91Q8.46 9.62 8.60 8.13L8.60 8.13L8.60 8.13Q8.27 9.09 7.88 10.18L7.88 10.18L7.88 10.18Q7.49 11.27 7.06 12.34L7.06 12.34L7.06 12.34Q6.64 13.41 6.20 14.38L6.20 14.38L6.20 14.38Q5.75 15.36 5.33 16.07L5.33 16.07L5.33 16.07Q4.97 16.24 4.62 16.24L4.62 16.24L4.62 16.24Q4.17 16.18 3.77 16.02L3.77 16.02L3.77 16.02Q3.37 15.85 3.21 15.61ZM27.22 14.36L27.22 14.36L27.22 14.36Q27.22 13.78 27.41 12.85L27.41 12.85L27.41 12.85Q27.61 11.93 27.93 10.88L27.93 10.88L27.93 10.88Q27.01 10.95 26.07 11.06L26.07 11.06L26.07 11.06Q25.14 11.17 24.46 11.19L24.46 11.19L24.46 11.19Q23.83 12.66 23.46 13.89L23.46 13.89L23.46 13.89Q23.09 15.13 22.88 16.31L22.88 16.31L22.88 16.31Q22.34 16.18 21.99 15.87L21.99 15.87L21.99 15.87Q21.64 15.55 21.35 15.08L21.35 15.08L21.35 15.08Q21.46 14.85 21.61 14.50L21.61 14.50L21.61 14.50Q21.76 14.15 21.96 13.66L21.96 13.66L21.96 13.66Q22.16 13.16 22.42 12.50L22.42 12.50L22.42 12.50Q22.68 11.83 23.02 10.95L23.02 10.95L23.02 10.95Q22.55 10.75 22.40 10.40L22.40 10.40L22.40 10.40Q22.47 10.35 22.71 10.28L22.71 10.28L22.71 10.28Q22.96 10.22 23.32 10.15L23.32 10.15L23.51 9.70L23.51 9.70Q23.80 8.95 23.99 8.43L23.99 8.43L23.99 8.43Q24.18 7.91 24.31 7.41L24.31 7.41L24.31 7.41Q24.44 6.92 24.56 6.31L24.56 6.31L24.56 6.31Q24.68 5.71 24.85 4.79L24.85 4.79L24.85 4.79Q25.44 4.90 25.92 5.31L25.92 5.31L25.92 5.31Q26.40 5.71 26.75 6.29L26.75 6.29L26.75 6.29Q26.63 6.45 26.45 6.79L26.45 6.79L26.45 6.79Q26.26 7.13 26.05 7.59L26.05 7.59L26.05 7.59Q25.83 8.06 25.58 8.64L25.58 8.64L25.58 8.64Q25.33 9.23 25.03 9.87L25.03 9.87L25.03 9.87Q25.90 9.76 26.79 9.66L26.79 9.66L26.79 9.66Q27.68 9.56 28.36 9.52L28.36 9.52L28.36 9.52Q28.62 8.79 28.89 8.10L28.89 8.10L28.89 8.10Q29.16 7.41 29.43 6.83L29.43 6.83L29.43 6.83Q29.69 6.26 29.94 5.82L29.94 5.82L29.94 5.82Q30.18 5.39 30.38 5.18L30.38 5.18L30.38 5.18Q30.52 5.19 30.75 5.29L30.75 5.29L30.75 5.29Q30.98 5.38 31.22 5.50L31.22 5.50L31.22 5.50Q31.46 5.63 31.65 5.78L31.65 5.78L31.65 5.78Q31.85 5.92 31.92 6.05L31.92 6.05L31.92 6.05Q31.67 6.29 31.42 6.66L31.42 6.66L31.42 6.66Q31.16 7.04 30.92 7.53L30.92 7.53L30.92 7.53Q30.67 8.02 30.44 8.60L30.44 8.60L30.44 8.60Q30.20 9.17 29.99 9.79L29.99 9.79L29.99 9.79Q30.27 10.04 30.27 10.42L30.27 10.42L30.27 10.42Q30.27 10.68 30.16 10.91L30.16 10.91L30.16 10.91Q30.03 10.88 29.90 10.87L29.90 10.87L29.90 10.87Q29.78 10.86 29.64 10.85L29.64 10.85L29.64 10.85Q29.40 11.61 29.20 12.35L29.20 12.35L29.20 12.35Q29.01 13.09 28.88 13.76L28.88 13.76L28.88 13.76Q28.74 14.43 28.66 14.99L28.66 14.99L28.66 14.99Q28.59 15.55 28.59 15.93L28.59 15.93L28.59 15.93Q28.59 16.07 28.59 16.16L28.59 16.16L28.59 16.16Q28.60 16.24 28.62 16.30L28.62 16.30L28.62 16.30Q28.31 16.28 28.17 16.19L28.17 16.19L28.17 16.19Q28.03 16.10 27.96 16.00L27.96 16.00L27.96 16.00Q27.89 15.89 27.83 15.79L27.83 15.79L27.83 15.79Q27.78 15.68 27.65 15.62L27.65 15.62L27.65 15.62Q27.55 15.58 27.47 15.43L27.47 15.43L27.47 15.43Q27.38 15.27 27.33 15.08L27.33 15.08L27.33 15.08Q27.27 14.88 27.24 14.69L27.24 14.69L27.24 14.69Q27.22 14.49 27.22 14.36ZM43.23 10.35L43.23 10.35L43.23 10.35Q44.28 9.20 45.12 7.91L45.12 7.91L45.12 7.91Q45.95 6.62 46.66 5.01L46.66 5.01L46.66 5.01Q47.03 5.05 47.36 5.21L47.36 5.21L47.36 5.21Q47.70 5.36 47.89 5.56L47.89 5.56L47.89 5.56Q47.12 6.48 46.50 7.24L46.50 7.24L46.50 7.24Q45.88 7.99 45.36 8.66L45.36 8.66L45.36 8.66Q44.84 9.32 44.40 9.93L44.40 9.93L44.40 9.93Q43.96 10.54 43.54 11.16L43.54 11.16L43.54 11.16Q43.33 11.87 43.15 12.60L43.15 12.60L43.15 12.60Q42.97 13.33 42.83 13.99L42.83 13.99L42.83 13.99Q42.69 14.66 42.61 15.22L42.61 15.22L42.61 15.22Q42.53 15.79 42.53 16.20L42.53 16.20L42.53 16.20Q42.38 16.20 42.04 16.14L42.04 16.14L42.04 16.14Q41.71 16.07 41.36 15.99L41.36 15.99L41.36 15.99Q41.01 15.90 40.72 15.82L40.72 15.82L40.72 15.82Q40.43 15.74 40.38 15.68L40.38 15.68L40.38 15.68Q40.60 15.30 40.82 14.75L40.82 14.75L40.82 14.75Q41.03 14.20 41.24 13.59L41.24 13.59L41.24 13.59Q41.45 12.98 41.65 12.36L41.65 12.36L41.65 12.36Q41.85 11.73 42.01 11.20L42.01 11.20L42.01 11.20Q41.66 10.11 41.34 9.15L41.34 9.15L41.34 9.15Q41.01 8.19 40.70 7.41L40.70 7.41L40.70 7.41Q40.39 6.64 40.11 6.08L40.11 6.08L40.11 6.08Q39.83 5.52 39.58 5.22L39.58 5.22L39.58 5.22Q39.72 5.17 40.01 5.11L40.01 5.11L40.01 5.11Q40.29 5.05 40.63 5.00L40.63 5.00L40.63 5.00Q40.98 4.94 41.34 4.91L41.34 4.91L41.34 4.91Q41.69 4.87 41.97 4.86L41.97 4.86L41.97 4.86Q41.97 5.21 42.04 5.71L42.04 5.71L42.04 5.71Q42.10 6.22 42.20 6.79L42.20 6.79L42.20 6.79Q42.31 7.36 42.45 7.95L42.45 7.95L42.45 7.95Q42.59 8.54 42.73 9.03L42.73 9.03L42.73 9.03Q42.87 9.52 43.00 9.88L43.00 9.88L43.00 9.88Q43.13 10.23 43.23 10.35ZM65.77 15.61L65.77 15.61L65.77 15.61Q65.70 15.04 65.67 14.36L65.67 14.36L65.67 14.36Q65.63 13.68 65.63 13.09L65.63 13.09L65.63 13.09Q65.63 12.15 65.70 11.29L65.70 11.29L65.70 11.29Q65.76 10.43 65.85 9.48L65.85 9.48L65.85 9.48Q65.94 8.54 66.05 7.43L66.05 7.43L66.05 7.43Q66.16 6.31 66.25 4.86L66.25 4.86L66.25 4.86Q66.43 4.86 66.77 4.96L66.77 4.96L66.77 4.96Q67.12 5.07 67.47 5.21L67.47 5.21L67.47 5.21Q67.82 5.35 68.08 5.49L68.08 5.49L68.08 5.49Q68.35 5.64 68.39 5.74L68.39 5.74L68.39 5.74Q68.15 6.29 67.96 7.18L67.96 7.18L67.96 7.18Q67.77 8.06 67.65 9.11L67.65 9.11L67.65 9.11Q67.52 10.16 67.45 11.27L67.45 11.27L67.45 11.27Q67.38 12.38 67.38 13.34L67.38 13.34L67.38 13.34Q67.38 13.79 67.40 14.22L67.40 14.22L67.40 14.22Q67.41 14.66 67.44 15.02L67.44 15.02L67.44 15.02Q67.73 14.59 68.12 13.78L68.12 13.78L68.12 13.78Q68.50 12.98 68.92 11.98L68.92 11.98L68.92 11.98Q69.33 10.99 69.74 9.91L69.74 9.91L69.74 9.91Q70.15 8.82 70.50 7.83L70.50 7.83L70.50 7.83Q70.85 6.85 71.10 6.05L71.10 6.05L71.10 6.05Q71.34 5.26 71.44 4.86L71.44 4.86L71.44 4.86Q71.62 4.86 71.98 4.96L71.98 4.96L71.98 4.96Q72.34 5.07 72.68 5.21L72.68 5.21L72.68 5.21Q73.02 5.35 73.29 5.49L73.29 5.49L73.29 5.49Q73.56 5.64 73.58 5.74L73.58 5.74L73.58 5.74Q73.35 6.29 73.16 7.18L73.16 7.18L73.16 7.18Q72.97 8.06 72.84 9.11L72.84 9.11L72.84 9.11Q72.72 10.16 72.65 11.27L72.65 11.27L72.65 11.27Q72.58 12.38 72.58 13.34L72.58 13.34L72.58 13.34Q72.58 13.75 72.58 14.15L72.58 14.15L72.58 14.15Q72.59 14.55 72.62 14.87L72.62 14.87L72.62 14.87Q73.07 13.71 73.55 12.56L73.55 12.56L73.55 12.56Q74.03 11.42 74.51 10.38L74.51 10.38L74.51 10.38Q74.98 9.34 75.43 8.43L75.43 8.43L75.43 8.43Q75.88 7.53 76.26 6.82L76.26 6.82L76.26 6.82Q76.64 6.12 76.92 5.66L76.92 5.66L76.92 5.66Q77.20 5.19 77.35 5.04L77.35 5.04L77.35 5.04Q77.67 5.08 78.02 5.27L78.02 5.27L78.02 5.27Q78.36 5.46 78.62 5.75L78.62 5.75L78.62 5.75Q78.22 6.08 77.70 6.81L77.70 6.81L77.70 6.81Q77.18 7.55 76.64 8.51L76.64 8.51L76.64 8.51Q76.09 9.48 75.54 10.57L75.54 10.57L75.54 10.57Q74.98 11.66 74.51 12.70L74.51 12.70L74.51 12.70Q74.03 13.73 73.66 14.63L73.66 14.63L73.66 14.63Q73.29 15.53 73.09 16.07L73.09 16.07L73.09 16.07Q72.73 16.24 72.38 16.24L72.38 16.24L72.38 16.24Q71.93 16.18 71.53 16.02L71.53 16.02L71.53 16.02Q71.13 15.85 70.97 15.61L70.97 15.61L70.97 15.61Q70.92 15.39 70.90 15.09L70.90 15.09L70.90 15.09Q70.87 14.78 70.85 14.49L70.85 14.49L70.85 14.49Q70.84 14.20 70.83 13.92L70.83 13.92L70.83 13.92Q70.83 13.65 70.83 13.45L70.83 13.45L70.83 13.45Q70.83 12.21 70.92 10.91L70.92 10.91L70.92 10.91Q71.02 9.62 71.16 8.13L71.16 8.13L71.16 8.13Q70.84 9.09 70.45 10.18L70.45 10.18L70.45 10.18Q70.06 11.27 69.63 12.34L69.63 12.34L69.63 12.34Q69.20 13.41 68.76 14.38L68.76 14.38L68.76 14.38Q68.32 15.36 67.90 16.07L67.90 16.07L67.90 16.07Q67.54 16.24 67.19 16.24L67.19 16.24L67.19 16.24Q66.74 16.18 66.34 16.02L66.34 16.02L66.34 16.02Q65.94 15.85 65.77 15.61ZM90.78 4.98L90.78 4.98L90.78 4.98Q91.04 5.10 91.32 5.27L91.32 5.27L91.32 5.27Q91.60 5.45 91.84 5.63L91.84 5.63L91.84 5.63Q92.08 5.81 92.24 5.98L92.24 5.98L92.24 5.98Q92.40 6.16 92.41 6.27L92.41 6.27L92.41 6.27Q92.18 6.22 91.94 6.20L91.94 6.20L91.94 6.20Q91.70 6.17 91.50 6.17L91.50 6.17L91.50 6.17Q90.87 6.17 90.25 6.48L90.25 6.48L90.25 6.48Q89.63 6.79 89.07 7.32L89.07 7.32L89.07 7.32Q88.51 7.85 88.03 8.57L88.03 8.57L88.03 8.57Q87.56 9.28 87.21 10.09L87.21 10.09L87.21 10.09Q86.87 10.91 86.67 11.77L86.67 11.77L86.67 11.77Q86.48 12.64 86.48 13.48L86.48 13.48L86.48 13.48Q86.48 14.57 86.84 15.11L86.84 15.11L86.84 15.11Q87.21 15.64 87.91 15.64L87.91 15.64L87.91 15.64Q88.24 15.64 88.63 15.51L88.63 15.51L88.63 15.51Q89.03 15.37 89.43 15.13L89.43 15.13L89.43 15.13Q89.84 14.90 90.23 14.56L90.23 14.56L90.23 14.56Q90.62 14.22 90.96 13.82L90.96 13.82L90.96 13.82Q91.45 13.23 91.84 12.48L91.84 12.48L91.84 12.48Q92.23 11.73 92.50 10.89L92.50 10.89L92.50 10.89Q92.78 10.05 92.92 9.16L92.92 9.16L92.92 9.16Q93.07 8.27 93.07 7.42L93.07 7.42L93.07 7.42Q93.07 7.08 93.06 6.85L93.06 6.85L93.06 6.85Q93.04 6.62 93.02 6.46L93.02 6.46L93.02 6.46Q93.00 6.30 92.99 6.20L92.99 6.20L92.99 6.20Q92.97 6.10 92.96 6.03L92.96 6.03L92.96 6.03Q93.13 6.12 93.33 6.24L93.33 6.24L93.33 6.24Q93.53 6.36 93.71 6.59L93.71 6.59L93.71 6.59Q93.88 6.82 94.00 7.20L94.00 7.20L94.00 7.20Q94.12 7.57 94.12 8.18L94.12 8.18L94.12 8.18Q94.12 9.16 93.89 10.10L93.89 10.10L93.89 10.10Q93.66 11.05 93.25 11.90L93.25 11.90L93.25 11.90Q92.83 12.75 92.27 13.50L92.27 13.50L92.27 13.50Q91.71 14.24 91.07 14.80L91.07 14.80L91.07 14.80Q90.23 15.54 89.28 15.95L89.28 15.95L89.28 15.95Q88.33 16.35 87.44 16.35L87.44 16.35L87.44 16.35Q86.16 16.35 85.48 15.53L85.48 15.53L85.48 15.53Q84.80 14.71 84.80 13.12L84.80 13.12L84.80 13.12Q84.80 12.26 84.99 11.31L84.99 11.31L84.99 11.31Q85.18 10.36 85.52 9.44L85.52 9.44L85.52 9.44Q85.86 8.51 86.34 7.68L86.34 7.68L86.34 7.68Q86.81 6.85 87.38 6.21L87.38 6.21L87.38 6.21Q87.95 5.57 88.60 5.19L88.60 5.19L88.60 5.19Q89.25 4.82 89.94 4.82L89.94 4.82L89.94 4.82Q90.16 4.82 90.36 4.85L90.36 4.85L90.36 4.85Q90.55 4.89 90.78 4.98ZM102.69 16.24L102.69 16.24L102.69 16.24Q101.89 16.00 101.61 15.79L101.61 15.79L101.61 15.79Q101.33 15.57 101.33 15.19L101.33 15.19L101.33 15.19Q101.33 14.77 101.53 14.01L101.53 14.01L101.53 14.01Q101.72 13.24 102.04 12.31L102.04 12.31L102.04 12.31Q102.35 11.37 102.76 10.35L102.76 10.35L102.76 10.35Q103.17 9.32 103.59 8.39L103.59 8.39L103.59 8.39Q104.01 7.45 104.41 6.67L104.41 6.67L104.41 6.67Q104.80 5.89 105.11 5.46L105.11 5.46L105.01 4.87L105.01 4.87Q105.21 4.87 105.56 4.97L105.56 4.97L105.56 4.97Q105.91 5.07 106.27 5.21L106.27 5.21L106.27 5.21Q106.62 5.35 106.90 5.49L106.90 5.49L106.90 5.49Q107.17 5.64 107.20 5.74L107.20 5.74L107.20 5.74Q107.13 6.08 107.09 6.76L107.09 6.76L107.09 6.76Q107.04 7.43 107.04 8.20L107.04 8.20L107.04 8.20Q107.04 9.73 107.16 11.19L107.16 11.19L107.16 11.19Q107.28 12.66 107.72 14.17L107.72 14.17L107.72 14.17Q107.94 13.05 108.20 11.94L108.20 11.94L108.20 11.94Q108.46 10.82 108.74 9.81L108.74 9.81L108.74 9.81Q109.02 8.79 109.30 7.92L109.30 7.92L109.30 7.92Q109.58 7.06 109.84 6.40L109.84 6.40L109.84 6.40Q110.10 5.75 110.32 5.38L110.32 5.38L110.32 5.38Q110.54 5.01 110.73 4.98L110.73 4.98L110.73 4.98Q110.88 5.01 111.06 5.10L111.06 5.10L111.06 5.10Q111.24 5.19 111.41 5.32L111.41 5.32L111.41 5.32Q111.58 5.45 111.72 5.60L111.72 5.60L111.72 5.60Q111.86 5.75 111.94 5.91L111.94 5.91L111.94 5.91Q111.50 6.09 111.06 6.76L111.06 6.76L111.06 6.76Q110.61 7.43 110.22 8.39L110.22 8.39L110.22 8.39Q109.82 9.35 109.47 10.47L109.47 10.47L109.47 10.47Q109.13 11.59 108.87 12.68L108.87 12.68L108.87 12.68Q108.61 13.76 108.47 14.69L108.47 14.69L108.47 14.69Q108.32 15.61 108.30 16.17L108.30 16.17L108.30 16.17Q108.30 16.20 108.32 16.21L108.32 16.21L108.32 16.21Q108.28 16.23 108.23 16.23L108.23 16.23L108.23 16.23Q108.18 16.23 108.14 16.23L108.14 16.23L108.14 16.23Q107.49 16.23 107.00 16.07L107.00 16.07L107.00 16.07Q106.50 15.90 106.34 15.61L106.34 15.61L106.34 15.61Q106.05 14.43 105.85 13.34L105.85 13.34L105.85 13.34Q105.66 12.25 105.53 11.16L105.53 11.16L105.53 11.16Q105.39 10.07 105.31 8.95L105.31 8.95L105.31 8.95Q105.24 7.84 105.20 6.62L105.20 6.62L105.20 6.62Q104.93 7.04 104.64 7.72L104.64 7.72L104.64 7.72Q104.34 8.40 104.06 9.21L104.06 9.21L104.06 9.21Q103.78 10.02 103.52 10.92L103.52 10.92L103.52 10.92Q103.26 11.82 103.07 12.67L103.07 12.67L103.07 12.67Q102.87 13.52 102.76 14.29L102.76 14.29L102.76 14.29Q102.65 15.05 102.65 15.61L102.65 15.61L102.65 15.61Q102.65 15.90 102.66 16.03L102.66 16.03L102.66 16.03Q102.66 16.16 102.69 16.24ZM120.02 8.08L120.02 8.08L120.02 8.08Q119.94 8.01 119.87 7.85L119.87 7.85L119.87 7.85Q119.80 7.70 119.80 7.55L119.80 7.55L119.80 7.55Q119.97 7.06 120.11 6.42L120.11 6.42L120.11 6.42Q120.26 5.78 120.26 5.00L120.26 5.00L120.26 5.00Q120.26 4.65 120.22 4.28L120.22 4.28L120.22 4.28Q120.19 3.92 120.09 3.51L120.09 3.51L120.09 3.51Q120.76 3.56 121.32 3.80L121.32 3.80L121.32 3.80Q121.87 4.05 122.05 4.40L122.05 4.40L122.05 4.40Q121.81 5.67 121.32 6.61L121.32 6.61L121.32 6.61Q120.83 7.55 120.02 8.08ZM130.47 6.69L130.47 6.69L130.47 6.69Q129.91 6.69 129.60 6.38L129.60 6.38L129.60 6.38Q129.30 6.06 129.30 5.61L129.30 5.61L129.30 5.61Q129.30 5.50 129.34 5.35L129.34 5.35L129.34 5.35Q129.37 5.19 129.43 5.08L129.43 5.08L129.43 5.08Q129.61 5.17 129.97 5.20L129.97 5.20L129.97 5.20Q130.33 5.24 130.80 5.24L130.80 5.24L130.80 5.24Q131.52 5.24 132.42 5.17L132.42 5.17L132.42 5.17Q133.32 5.11 134.15 5.04L134.15 5.04L134.15 5.04Q134.97 4.97 135.60 4.91L135.60 4.91L135.60 4.91Q136.23 4.84 136.42 4.84L136.42 4.84L136.42 4.84Q136.93 4.84 137.16 5.23L137.16 5.23L137.16 5.23Q137.40 5.61 137.51 6.26L137.51 6.26L137.51 6.26Q137.14 6.23 136.79 6.21L136.79 6.21L136.79 6.21Q136.43 6.19 136.18 6.19L136.18 6.19L136.18 6.19Q135.73 6.19 135.27 6.22L135.27 6.22L135.27 6.22Q134.82 6.24 134.36 6.30L134.36 6.30L134.36 6.30Q134.16 6.71 133.92 7.26L133.92 7.26L133.92 7.26Q133.69 7.81 133.45 8.41L133.45 8.41L133.45 8.41Q133.22 9.02 133.01 9.61L133.01 9.61L133.01 9.61Q132.80 10.21 132.65 10.68L132.65 10.68L132.65 10.68Q132.34 11.61 132.11 12.39L132.11 12.39L132.11 12.39Q131.88 13.17 131.70 13.85L131.70 13.85L131.70 13.85Q131.53 14.53 131.40 15.15L131.40 15.15L131.40 15.15Q131.28 15.76 131.18 16.35L131.18 16.35L131.18 16.35Q130.24 16.21 129.61 15.18L129.61 15.18L129.61 15.18Q129.72 14.74 129.88 14.23L129.88 14.23L129.88 14.23Q130.05 13.72 130.26 13.07L130.26 13.07L130.26 13.07Q130.48 12.42 130.77 11.59L130.77 11.59L130.77 11.59Q131.07 10.77 131.45 9.72L131.45 9.72L131.45 9.72Q131.59 9.32 131.74 8.90L131.74 8.90L131.74 8.90Q131.89 8.47 132.04 8.05L132.04 8.05L132.04 8.05Q132.19 7.63 132.31 7.24L132.31 7.24L132.31 7.24Q132.43 6.85 132.51 6.52L132.51 6.52L132.51 6.52Q131.92 6.59 131.40 6.64L131.40 6.64L131.40 6.64Q130.87 6.69 130.47 6.69ZM158.42 10.35L158.42 10.35L158.42 10.35Q159.47 9.20 160.31 7.91L160.31 7.91L160.31 7.91Q161.14 6.62 161.85 5.01L161.85 5.01L161.85 5.01Q162.22 5.05 162.55 5.21L162.55 5.21L162.55 5.21Q162.89 5.36 163.09 5.56L163.09 5.56L163.09 5.56Q162.32 6.48 161.69 7.24L161.69 7.24L161.69 7.24Q161.07 7.99 160.55 8.66L160.55 8.66L160.55 8.66Q160.03 9.32 159.59 9.93L159.59 9.93L159.59 9.93Q159.15 10.54 158.73 11.16L158.73 11.16L158.73 11.16Q158.52 11.87 158.34 12.60L158.34 12.60L158.34 12.60Q158.16 13.33 158.02 13.99L158.02 13.99L158.02 13.99Q157.88 14.66 157.80 15.22L157.80 15.22L157.80 15.22Q157.72 15.79 157.72 16.20L157.72 16.20L157.72 16.20Q157.57 16.20 157.23 16.14L157.23 16.14L157.23 16.14Q156.90 16.07 156.55 15.99L156.55 15.99L156.55 15.99Q156.20 15.90 155.91 15.82L155.91 15.82L155.91 15.82Q155.62 15.74 155.57 15.68L155.57 15.68L155.57 15.68Q155.79 15.30 156.01 14.75L156.01 14.75L156.01 14.75Q156.23 14.20 156.44 13.59L156.44 13.59L156.44 13.59Q156.65 12.98 156.84 12.36L156.84 12.36L156.84 12.36Q157.04 11.73 157.21 11.20L157.21 11.20L157.21 11.20Q156.86 10.11 156.53 9.15L156.53 9.15L156.53 9.15Q156.20 8.19 155.89 7.41L155.89 7.41L155.89 7.41Q155.58 6.64 155.30 6.08L155.30 6.08L155.30 6.08Q155.02 5.52 154.77 5.22L154.77 5.22L154.77 5.22Q154.91 5.17 155.20 5.11L155.20 5.11L155.20 5.11Q155.48 5.05 155.83 5.00L155.83 5.00L155.83 5.00Q156.17 4.94 156.53 4.91L156.53 4.91L156.53 4.91Q156.88 4.87 157.16 4.86L157.16 4.86L157.16 4.86Q157.16 5.21 157.23 5.71L157.23 5.71L157.23 5.71Q157.29 6.22 157.39 6.79L157.39 6.79L157.39 6.79Q157.50 7.36 157.64 7.95L157.64 7.95L157.64 7.95Q157.78 8.54 157.92 9.03L157.92 9.03L157.92 9.03Q158.06 9.52 158.19 9.88L158.19 9.88L158.19 9.88Q158.33 10.23 158.42 10.35ZM175.07 4.98L175.07 4.98L175.07 4.98Q175.34 5.10 175.62 5.27L175.62 5.27L175.62 5.27Q175.90 5.45 176.13 5.63L176.13 5.63L176.13 5.63Q176.37 5.81 176.53 5.98L176.53 5.98L176.53 5.98Q176.69 6.16 176.71 6.27L176.71 6.27L176.71 6.27Q176.47 6.22 176.23 6.20L176.23 6.20L176.23 6.20Q175.99 6.17 175.80 6.17L175.80 6.17L175.80 6.17Q175.17 6.17 174.54 6.48L174.54 6.48L174.54 6.48Q173.92 6.79 173.36 7.32L173.36 7.32L173.36 7.32Q172.80 7.85 172.33 8.57L172.33 8.57L172.33 8.57Q171.85 9.28 171.51 10.09L171.51 10.09L171.51 10.09Q171.16 10.91 170.97 11.77L170.97 11.77L170.97 11.77Q170.77 12.64 170.77 13.48L170.77 13.48L170.77 13.48Q170.77 14.57 171.14 15.11L171.14 15.11L171.14 15.11Q171.50 15.64 172.20 15.64L172.20 15.64L172.20 15.64Q172.54 15.64 172.93 15.51L172.93 15.51L172.93 15.51Q173.32 15.37 173.73 15.13L173.73 15.13L173.73 15.13Q174.13 14.90 174.52 14.56L174.52 14.56L174.52 14.56Q174.92 14.22 175.25 13.82L175.25 13.82L175.25 13.82Q175.74 13.23 176.13 12.48L176.13 12.48L176.13 12.48Q176.53 11.73 176.80 10.89L176.80 10.89L176.80 10.89Q177.07 10.05 177.22 9.16L177.22 9.16L177.22 9.16Q177.37 8.27 177.37 7.42L177.37 7.42L177.37 7.42Q177.37 7.08 177.35 6.85L177.35 6.85L177.35 6.85Q177.34 6.62 177.32 6.46L177.32 6.46L177.32 6.46Q177.30 6.30 177.28 6.20L177.28 6.20L177.28 6.20Q177.27 6.10 177.25 6.03L177.25 6.03L177.25 6.03Q177.42 6.12 177.63 6.24L177.63 6.24L177.63 6.24Q177.83 6.36 178.00 6.59L178.00 6.59L178.00 6.59Q178.18 6.82 178.30 7.20L178.30 7.20L178.30 7.20Q178.42 7.57 178.42 8.18L178.42 8.18L178.42 8.18Q178.42 9.16 178.19 10.10L178.19 10.10L178.19 10.10Q177.95 11.05 177.54 11.90L177.54 11.90L177.54 11.90Q177.13 12.75 176.57 13.50L176.57 13.50L176.57 13.50Q176.01 14.24 175.36 14.80L175.36 14.80L175.36 14.80Q174.52 15.54 173.57 15.95L173.57 15.95L173.57 15.95Q172.62 16.35 171.74 16.35L171.74 16.35L171.74 16.35Q170.45 16.35 169.77 15.53L169.77 15.53L169.77 15.53Q169.09 14.71 169.09 13.12L169.09 13.12L169.09 13.12Q169.09 12.26 169.28 11.31L169.28 11.31L169.28 11.31Q169.47 10.36 169.81 9.44L169.81 9.44L169.81 9.44Q170.16 8.51 170.63 7.68L170.63 7.68L170.63 7.68Q171.11 6.85 171.68 6.21L171.68 6.21L171.68 6.21Q172.24 5.57 172.89 5.19L172.89 5.19L172.89 5.19Q173.54 4.82 174.23 4.82L174.23 4.82L174.23 4.82Q174.45 4.82 174.65 4.85L174.65 4.85L174.65 4.85Q174.85 4.89 175.07 4.98ZM191.11 5.75L191.11 5.75L191.11 5.75Q190.50 6.58 189.99 7.57L189.99 7.57L189.99 7.57Q189.49 8.57 189.13 9.61L189.13 9.61L189.13 9.61Q188.78 10.65 188.59 11.67L188.59 11.67L188.59 11.67Q188.40 12.68 188.40 13.57L188.40 13.57L188.40 13.57Q188.40 14.66 188.72 15.15L188.72 15.15L188.72 15.15Q189.04 15.64 189.83 15.64L189.83 15.64L189.83 15.64Q190.74 15.64 191.42 15.00L191.42 15.00L191.42 15.00Q192.11 14.36 192.71 13.24L192.71 13.24L192.71 13.24Q193.10 12.52 193.38 11.65L193.38 11.65L193.38 11.65Q193.66 10.78 193.84 9.86L193.84 9.86L193.84 9.86Q194.01 8.95 194.10 8.02L194.10 8.02L194.10 8.02Q194.18 7.08 194.18 6.23L194.18 6.23L194.18 6.23Q194.18 5.68 194.17 5.43L194.17 5.43L194.17 5.43Q194.15 5.18 194.12 5.03L194.12 5.03L194.12 5.03Q194.17 5.03 194.33 5.05L194.33 5.05L194.33 5.05Q194.50 5.08 194.72 5.12L194.72 5.12L194.72 5.12Q194.94 5.17 195.15 5.24L195.15 5.24L195.15 5.24Q195.37 5.31 195.52 5.39L195.52 5.39L195.52 5.39Q195.45 6.45 195.27 7.59L195.27 7.59L195.27 7.59Q195.08 8.72 194.77 9.83L194.77 9.83L194.77 9.83Q194.46 10.93 194.05 11.96L194.05 11.96L194.05 11.96Q193.65 12.98 193.14 13.79L193.14 13.79L193.14 13.79Q192.40 14.99 191.48 15.67L191.48 15.67L191.48 15.67Q190.55 16.35 189.29 16.35L189.29 16.35L189.29 16.35Q188.01 16.35 187.29 15.60L187.29 15.60L187.29 15.60Q186.58 14.85 186.58 13.33L186.58 13.33L186.58 13.33Q186.58 12.45 186.77 11.33L186.77 11.33L186.77 11.33Q186.97 10.22 187.30 9.07L187.30 9.07L187.30 9.07Q187.63 7.91 188.06 6.81L188.06 6.81L188.06 6.81Q188.50 5.71 188.97 4.84L188.97 4.84L188.97 4.84Q189.21 4.86 189.53 4.94L189.53 4.94L189.53 4.94Q189.85 5.03 190.16 5.16L190.16 5.16L190.16 5.16Q190.47 5.29 190.73 5.45L190.73 5.45L190.73 5.45Q190.99 5.61 191.11 5.75ZM213.77 14.45L213.77 14.45L213.77 14.45Q213.98 13.99 214.27 13.26L214.27 13.26L214.27 13.26Q214.56 12.53 214.89 11.68L214.89 11.68L214.89 11.68Q215.21 10.84 215.54 9.95L215.54 9.95L215.54 9.95Q215.88 9.06 216.17 8.26L216.17 8.26L216.17 8.26Q216.47 7.46 216.69 6.83L216.69 6.83L216.69 6.83Q216.90 6.20 217.00 5.87L217.00 5.87L217.00 5.87Q216.12 6.23 215.49 6.97L215.49 6.97L215.49 6.97Q214.86 7.71 214.54 8.83L214.54 8.83L214.54 8.83Q214.21 8.72 213.95 8.43L213.95 8.43L213.95 8.43Q213.68 8.15 213.60 7.71L213.60 7.71L213.60 7.71Q213.74 7.07 214.12 6.54L214.12 6.54L214.12 6.54Q214.51 6.01 215.10 5.63L215.10 5.63L215.10 5.63Q215.68 5.25 216.45 5.05L216.45 5.05L216.45 5.05Q217.22 4.84 218.11 4.84L218.11 4.84L218.11 4.84Q219.23 4.84 220.16 5.17L220.16 5.17L220.16 5.17Q221.10 5.50 221.77 6.09L221.77 6.09L221.77 6.09Q222.45 6.68 222.82 7.50L222.82 7.50L222.82 7.50Q223.20 8.33 223.20 9.34L223.20 9.34L223.20 9.34Q223.20 10.71 222.70 11.96L222.70 11.96L222.70 11.96Q222.19 13.20 221.33 14.15L221.33 14.15L221.33 14.15Q220.47 15.11 219.34 15.67L219.34 15.67L219.34 15.67Q218.20 16.24 216.96 16.24L216.96 16.24L216.96 16.24Q215.81 16.24 214.99 15.79L214.99 15.79L214.99 15.79Q214.17 15.33 213.77 14.45ZM218.71 5.54L218.71 5.54L218.71 5.54Q218.01 5.54 217.38 5.74L217.38 5.74L217.38 5.74Q217.99 5.96 218.40 6.21L218.40 6.21L218.40 6.21Q218.81 6.45 218.96 6.59L218.96 6.59L218.96 6.59Q218.85 6.75 218.63 7.14L218.63 7.14L218.63 7.14Q218.41 7.53 218.13 8.09L218.13 8.09L218.13 8.09Q217.84 8.65 217.52 9.32L217.52 9.32L217.52 9.32Q217.20 9.98 216.89 10.68L216.89 10.68L216.89 10.68Q216.09 12.46 215.73 13.48L215.73 13.48L215.73 13.48Q215.38 14.50 215.38 14.90L215.38 14.90L215.38 14.90Q215.57 14.97 215.85 14.99L215.85 14.99L215.85 14.99Q216.13 15.02 216.45 15.02L216.45 15.02L216.45 15.02Q217.59 15.02 218.60 14.50L218.60 14.50L218.60 14.50Q219.62 13.97 220.38 13.09L220.38 13.09L220.38 13.09Q221.14 12.21 221.59 11.04L221.59 11.04L221.59 11.04Q222.03 9.87 222.03 8.58L222.03 8.58L222.03 8.58Q222.03 7.14 221.13 6.34L221.13 6.34L221.13 6.34Q220.23 5.54 218.71 5.54ZM231.14 14.38L231.14 14.38L231.14 14.38Q231.14 13.87 231.30 13.07L231.30 13.07L231.30 13.07Q231.46 12.26 231.72 11.33L231.72 11.33L231.72 11.33Q231.98 10.40 232.32 9.43L232.32 9.43L232.32 9.43Q232.65 8.46 233.00 7.60L233.00 7.60L233.00 7.60Q233.35 6.75 233.69 6.10L233.69 6.10L233.69 6.10Q234.02 5.46 234.29 5.18L234.29 5.18L234.29 5.18Q234.43 5.19 234.66 5.29L234.66 5.29L234.66 5.29Q234.89 5.38 235.13 5.50L235.13 5.50L235.13 5.50Q235.37 5.63 235.56 5.78L235.56 5.78L235.56 5.78Q235.76 5.92 235.82 6.05L235.82 6.05L235.82 6.05Q235.41 6.41 235.01 7.15L235.01 7.15L235.01 7.15Q234.61 7.88 234.24 8.82L234.24 8.82L234.24 8.82Q233.87 9.76 233.55 10.80L233.55 10.80L233.55 10.80Q233.23 11.84 232.99 12.82L232.99 12.82L232.99 12.82Q232.75 13.80 232.62 14.64L232.62 14.64L232.62 14.64Q232.48 15.48 232.48 16.00L232.48 16.00L232.48 16.00Q232.48 16.24 232.53 16.30L232.53 16.30L232.53 16.30Q232.22 16.28 232.08 16.19L232.08 16.19L232.08 16.19Q231.94 16.10 231.86 16.00L231.86 16.00L231.86 16.00Q231.78 15.89 231.72 15.79L231.72 15.79L231.72 15.79Q231.66 15.68 231.53 15.62L231.53 15.62L231.53 15.62Q231.43 15.58 231.36 15.43L231.36 15.43L231.36 15.43Q231.29 15.27 231.25 15.09L231.25 15.09L231.25 15.09Q231.20 14.90 231.17 14.70L231.17 14.70L231.17 14.70Q231.14 14.50 231.14 14.38ZM247.91 9.21L247.91 9.21L247.91 9.21Q248.37 9.21 248.63 9.46L248.63 9.46L248.63 9.46Q248.89 9.72 248.89 10.16L248.89 10.16L248.89 10.16Q248.89 10.28 248.87 10.39L248.87 10.39L248.87 10.39Q248.85 10.51 248.82 10.60L248.82 10.60L248.82 10.60Q248.64 10.57 248.42 10.55L248.42 10.55L248.42 10.55Q248.19 10.53 247.88 10.53L247.88 10.53L247.88 10.53Q247.28 10.53 246.67 10.63L246.67 10.63L246.67 10.63Q246.05 10.74 245.49 10.81L245.49 10.81L245.49 10.81Q245.17 11.55 244.90 12.24L244.90 12.24L244.90 12.24Q244.64 12.94 244.45 13.51L244.45 13.51L244.45 13.51Q244.26 14.08 244.15 14.50L244.15 14.50L244.15 14.50Q244.05 14.92 244.03 15.13L244.03 15.13L244.03 15.13Q245.17 14.90 246.32 14.73L246.32 14.73L246.32 14.73Q247.48 14.56 248.75 14.48L248.75 14.48L248.75 14.48Q248.91 14.71 249.01 14.99L249.01 14.99L249.01 14.99Q249.12 15.27 249.12 15.60L249.12 15.60L249.12 15.60Q249.12 15.68 249.12 15.78L249.12 15.78L249.12 15.78Q249.12 15.88 249.09 15.97L249.09 15.97L249.09 15.97Q248.70 15.96 248.26 15.95L248.26 15.95L248.26 15.95Q247.83 15.95 247.13 15.95L247.13 15.95L247.13 15.95Q246.67 15.95 246.25 15.97L246.25 15.97L246.25 15.97Q245.84 15.99 245.42 16.03L245.42 16.03L245.42 16.03Q245 16.07 244.53 16.14L244.53 16.14L244.53 16.14Q244.06 16.21 243.47 16.31L243.47 16.31L243.47 16.31Q242.83 16.06 242.23 15.08L242.23 15.08L242.23 15.08Q242.47 14.57 242.89 13.54L242.89 13.54L242.89 13.54Q243.32 12.52 243.98 10.79L243.98 10.79L243.98 10.79Q243.35 10.60 243.15 10.09L243.15 10.09L243.15 10.09Q243.22 10.02 243.56 9.92L243.56 9.92L243.56 9.92Q243.89 9.81 244.38 9.70L244.38 9.70L244.38 9.70Q244.59 9.16 244.74 8.75L244.74 8.75L244.74 8.75Q244.89 8.34 245 7.99L245 7.99L245 7.99Q245.11 7.63 245.20 7.29L245.20 7.29L245.20 7.29Q245.29 6.94 245.38 6.54L245.38 6.54L245.38 6.54Q244.89 6.51 244.61 6.27L244.61 6.27L244.61 6.27Q244.33 6.02 244.33 5.63L244.33 5.63L244.33 5.63Q244.33 5.52 244.36 5.36L244.36 5.36L244.36 5.36Q244.40 5.21 244.44 5.10L244.44 5.10L244.44 5.10Q244.72 5.14 244.98 5.15L244.98 5.15L244.98 5.15Q245.24 5.17 245.66 5.17L245.66 5.17L245.66 5.17Q246.54 5.17 247.31 5.12L247.31 5.12L247.31 5.12Q248.08 5.07 248.70 5.01L248.70 5.01L248.70 5.01Q249.33 4.96 249.77 4.91L249.77 4.91L249.77 4.91Q250.22 4.86 250.46 4.86L250.46 4.86L250.46 4.86Q250.78 4.86 251.03 5.19L251.03 5.19L251.03 5.19Q251.29 5.53 251.41 6.15L251.41 6.15L251.41 6.15Q250.98 6.10 250.71 6.09L250.71 6.09L250.71 6.09Q250.43 6.08 250.22 6.08L250.22 6.08L250.22 6.08Q249.45 6.08 248.81 6.15L248.81 6.15L248.81 6.15Q248.18 6.23 247.59 6.31L247.59 6.31L247.59 6.31Q247.51 6.44 247.40 6.64L247.40 6.64L247.40 6.64Q247.30 6.83 247.13 7.18L247.13 7.18L247.13 7.18Q246.96 7.53 246.72 8.06L246.72 8.06L246.72 8.06Q246.47 8.60 246.12 9.39L246.12 9.39L246.12 9.39Q246.65 9.31 247.12 9.26L247.12 9.26L247.12 9.26Q247.59 9.21 247.91 9.21ZM262.02 4.30L262.02 4.30L262.02 4.30Q262.57 4.34 263.08 4.58L263.08 4.58L263.08 4.58Q263.59 4.82 263.98 5.18L263.98 5.18L263.98 5.18Q264.38 5.54 264.61 6.02L264.61 6.02L264.61 6.02Q264.85 6.50 264.85 7.01L264.85 7.01L264.85 7.01Q264.85 7.55 264.66 8.01L264.66 8.01L264.66 8.01Q264.47 8.47 264.11 8.95L264.11 8.95L264.11 8.95Q263.75 9.42 263.21 9.93L263.21 9.93L263.21 9.93Q262.68 10.44 262.01 11.09L262.01 11.09L262.01 11.09Q261.35 11.70 261.02 12.34L261.02 12.34L261.02 12.34Q260.68 12.98 260.68 13.50L260.68 13.50L260.68 13.50Q260.68 13.57 260.69 13.64L260.69 13.64L260.69 13.64Q260.69 13.71 260.71 13.79L260.71 13.79L260.71 13.79Q260.47 13.78 260.20 13.68L260.20 13.68L260.20 13.68Q259.94 13.58 259.69 13.42L259.69 13.42L259.69 13.42Q259.45 13.26 259.26 13.07L259.26 13.07L259.26 13.07Q259.07 12.88 258.99 12.68L258.99 12.68L258.99 12.68Q258.99 12.36 259.14 11.91L259.14 11.91L259.14 11.91Q259.29 11.45 259.61 10.96L259.61 10.96L259.61 10.96Q259.92 10.46 260.42 9.95L260.42 9.95L260.42 9.95Q260.92 9.45 261.60 9.04L261.60 9.04L261.60 9.04Q262.71 8.39 263.26 7.77L263.26 7.77L263.26 7.77Q263.80 7.15 263.80 6.66L263.80 6.66L263.80 6.66Q263.80 6.44 263.71 6.23L263.71 6.23L263.71 6.23Q263.62 6.02 263.48 5.85L263.48 5.85L263.48 5.85Q263.34 5.68 263.15 5.58L263.15 5.58L263.15 5.58Q262.96 5.47 262.78 5.47L262.78 5.47L262.78 5.47Q262.57 5.47 262.31 5.68L262.31 5.68L262.31 5.68Q262.05 5.89 261.83 6.20L261.83 6.20L261.83 6.20Q261.60 6.51 261.45 6.87L261.45 6.87L261.45 6.87Q261.30 7.24 261.30 7.53L261.30 7.53L261.30 7.53Q261.30 7.73 261.34 7.78L261.34 7.78L261.34 7.78Q261.23 7.81 261.16 7.81L261.16 7.81L261.16 7.81Q261.09 7.81 261.02 7.81L261.02 7.81L261.02 7.81Q260.74 7.81 260.46 7.76L260.46 7.76L260.46 7.76Q260.19 7.70 259.96 7.62L259.96 7.62L259.96 7.62Q259.73 7.53 259.57 7.41L259.57 7.41L259.57 7.41Q259.41 7.29 259.36 7.17L259.36 7.17L259.36 7.17Q259.46 6.71 259.76 6.22L259.76 6.22L259.76 6.22Q260.05 5.73 260.43 5.31L260.43 5.31L260.43 5.31Q260.81 4.90 261.23 4.62L261.23 4.62L261.23 4.62Q261.65 4.34 262.02 4.30ZM258.93 16.25L258.93 16.25L258.93 16.25Q258.82 16.25 258.67 16.20L258.67 16.20L258.67 16.20Q258.52 16.16 258.39 16.06L258.39 16.06L258.39 16.06Q258.26 15.96 258.16 15.81L258.16 15.81L258.16 15.81Q258.06 15.65 258.06 15.44L258.06 15.44L258.06 15.44Q258.06 15.32 258.10 15.09L258.10 15.09L258.10 15.09Q258.15 14.85 258.24 14.62L258.24 14.62L258.24 14.62Q258.33 14.39 258.47 14.22L258.47 14.22L258.47 14.22Q258.61 14.04 258.82 14.04L258.82 14.04L258.82 14.04Q258.94 14.04 259.13 14.12L259.13 14.12L259.13 14.12Q259.32 14.20 259.50 14.31L259.50 14.31L259.50 14.31Q259.69 14.43 259.85 14.60L259.85 14.60L259.85 14.60Q260.02 14.76 260.11 14.92L260.11 14.92L260.11 14.92Q259.95 15.09 259.82 15.32L259.82 15.32L259.82 15.32Q259.69 15.55 259.56 15.76L259.56 15.76L259.56 15.76Q259.43 15.97 259.28 16.11L259.28 16.11L259.28 16.11Q259.13 16.25 258.93 16.25Z" />
  </g>
</svg>
